HIERARCHY
ROOT Hips
{
  OFFSET 7.333 -26.027 -164.856
  CHANNELS 6 Xposition Yposition Zposition Zrotation Xrotation Yrotation
  JOINT LeftUpLeg
  {
    OFFSET 10.092 0.000 0.000
    CHANNELS 3 Zrotation Xrotation Yrotation
    JOINT LeftLeg
    {
      OFFSET 0.000 -38.160 -0.000
    CHANNELS 3 Zrotation Xrotation Yrotation
      JOINT LeftFoot
      {
        OFFSET -0.000 -24.040 0.000
    CHANNELS 3 Zrotation Xrotation Yrotation
        End Site
        {
          OFFSET -0.000 0.000 12.945
        }
      }
    }
  }
  JOINT RightUpLeg
  {
    OFFSET -10.092 -0.000 0.000
    CHANNELS 3 Zrotation Xrotation Yrotation
    JOINT RightLeg
    {
      OFFSET 0.000 -33.046 0.000
    CHANNELS 3 Zrotation Xrotation Yrotation
      JOINT RightFoot
      {
        OFFSET 0.000 -22.031 -0.000
    CHANNELS 3 Zrotation Xrotation Yrotation
        End Site
        {
          OFFSET 0.000 -0.000 11.863
        }
      }
    }
  }
  JOINT Spine
  {
    OFFSET -0.000 16.511 0.000
    CHANNELS 3 Zrotation Xrotation Yrotation
    JOINT LeftShoulder
    {
      OFFSET 0 16.511 0
    CHANNELS 3 Zrotation Xrotation Yrotation
      JOINT LeftArm
      {
        OFFSET 16.337 0.000 0.000
    CHANNELS 3 Zrotation Xrotation Yrotation
        JOINT LeftForeArm
        {
          OFFSET 0.000 -24.030 0.000
    CHANNELS 3 Zrotation Xrotation Yrotation
          JOINT LeftHand
          {
            OFFSET 0.000 -17.629 -0.000
    CHANNELS 3 Zrotation Xrotation Yrotation
            End Site
            {
              OFFSET 0.000 -11.753 -0.000
            }
          }
        }
      }
    }
    JOINT RightShoulder
    {
      OFFSET 0 16.511 0
    CHANNELS 3 Zrotation Xrotation Yrotation
      JOINT RightArm
      {
        OFFSET -16.337 0.000 0.000
    CHANNELS 3 Zrotation Xrotation Yrotation
        JOINT RightForeArm
        {
          OFFSET -0.000 -19.534 0.000
    CHANNELS 3 Zrotation Xrotation Yrotation
          JOINT RightHand
          {
            OFFSET 0.000 -19.514 -0.000
    CHANNELS 3 Zrotation Xrotation Yrotation
            End Site
            {
              OFFSET 0.000 -13.010 -0.000
            }
          }
        }
      }
    }
    JOINT Neck
    {
      OFFSET -0.000 16.511 0.000
    CHANNELS 3 Zrotation Xrotation Yrotation
      JOINT Head
      {
        OFFSET -0.000 12.493 -0.000
    CHANNELS 3 Zrotation Xrotation Yrotation
        End Site
        {
          OFFSET -0.000 8.328 -0.000
        }
      }
    }
  }
}
MOTION
Frames: 7
Frame Time: 0.0333333
0 0 0 -6.066680e-01 -1.170430e+00 -8.186146e+00 -4.485940e+00 1.042410e+01 8.125425e-01 1.043620e+01 -1.154670e+01 1.208522e+00 0 0 6.604515e-08 4.074890e+00 1.192400e+01 -8.458405e-01 -4.650362e-02 -1.063370e+01 7.311870e-01 0 0 NaN 2.768924e-07 -7.654438e-09 4.684836e-05 0 0 0 7.846840e+01 -3.321364e+01 -1.306319e+00 1.193158e+02 -3.079710e+01 1.293835e+02 NaN -2.013792e-09 NaN 0 0 0 -8.282810e+01 -4.457351e+01 1.032650e+01 -1.126466e+02 -2.570450e+01 -1.570760e+02 NaN 6.147002e-08 -9.895785e-09 -1.233891e-01 -2.137490e+00 -4.604000e-03 0 0 NaN 
0 0 0 -9.006740e-01 -1.588208e+00 -7.957907e+00 -3.694280e+00 1.117347e+01 7.170142e-01 9.329760e+00 -1.232496e+01 1.221960e+00 0 0 NaN 3.548390e+00 1.257540e+01 -7.735210e-01 2.793962e+00 -1.099260e+01 1.198090e+00 0 0 -6.549610e-08 NaN -8.107236e-09 -7.000000e-06 0 0 0 7.832463e+01 -3.211017e+01 -1.208640e+00 1.160641e+02 -2.833927e+01 1.270963e+02 NaN 5.762702e-08 NaN 0 0 0 -7.882190e+01 -3.982932e+01 1.275750e+01 -1.140335e+02 -2.193840e+01 -1.480188e+02 -7.809018e-08 -1.978939e-08 -5.994966e-08 -3.074770e-01 -1.958250e+00 -1.050600e-02 0 0 NaN 
0 0 0 -5.944050e-01 -1.414800e+00 -7.951749e+00 -3.366740e+00 1.068520e+01 6.249240e-01 6.673970e+00 -1.055270e+01 6.170870e-01 0 0 NaN 3.326086e+00 1.212580e+01 -7.060160e-01 1.394340e+00 -1.037230e+01 8.438320e-01 0 0 NaN NaN -5.019815e-09 5.188532e-05 0 0 0 7.956502e+01 -2.684357e+01 6.574678e-01 1.132781e+02 -2.442130e+01 1.261006e+02 -6.901554e-09 NaN 1.014996e-07 0 0 0 -7.834896e+01 -3.297307e+01 1.234538e+01 -1.140311e+02 -1.646100e+01 -1.500064e+02 -3.179191e-08 -2.424984e-08 -4.050757e-08 1.069260e-01 -1.333360e+00 2.490000e-03 0 0 -2.747246e-07 
0 0 0 -3.797010e-01 -1.223920e+00 -8.617981e+00 -3.644590e+00 1.026640e+01 6.504000e-01 5.931720e+00 -9.571550e+00 3.902380e-01 0 0 5.137556e-08 2.840962e+00 1.139130e+01 -5.612670e-01 2.245460e+00 -9.112900e+00 7.984900e-01 0 0 NaN 8.221006e-09 -1.035883e-08 -9.900000e-05 0 0 0 7.462982e+01 -1.888113e+01 8.384047e-01 1.104928e+02 -2.084140e+01 1.258170e+02 -3.358271e-08 NaN NaN 0 0 0 -7.610064e+01 -2.670740e+01 1.258156e+01 -1.105198e+02 -9.959210e+00 -1.536143e+02 4.784689e-09 -1.265647e-08 -1.403954e-08 -1.286970e-01 -1.238210e+00 -2.779000e-03 0 0 NaN 
0 0 0 -3.394650e-01 -1.557582e+00 -8.630610e+00 -3.695510e+00 1.099227e+01 7.057470e-01 6.454430e+00 -1.055478e+01 5.181820e-01 0 0 NaN 3.398622e+00 1.151999e+01 -6.782580e-01 1.112388e+00 -8.378340e+00 6.469882e-01 0 0 -8.951536e-08 3.549307e-08 -5.453677e-09 5.000000e-05 0 0 0 6.994910e+01 -1.161386e+01 2.069788e+00 1.056734e+02 -1.600840e+01 1.243107e+02 -2.617801e-08 1.327723e-08 NaN 0 0 0 -7.259577e+01 -2.168480e+01 1.314140e+01 -1.056934e+02 -1.922940e+00 -1.453622e+02 -7.013965e-08 -4.252862e-08 -1.485234e-07 2.901300e-02 -1.375390e+00 6.970000e-04 0 0 NaN 
0 0 0 -2.146980e-01 -6.950511e-01 -9.713035e+00 -4.213210e+00 9.864823e+00 7.241921e-01 8.099660e+00 -9.673110e+00 6.645850e-01 0 0 1.818182e-07 3.267340e+00 1.151727e+01 -6.531380e-01 1.473860e+00 -1.023780e+01 8.325172e-01 0 0 NaN -5.575009e-08 -4.811397e-09 -6.900000e-05 0 0 0 6.432950e+01 -1.677865e+00 5.847822e+00 9.882554e+01 -1.360820e+01 1.151023e+02 NaN 6.781936e-08 7.935076e-08 0 0 0 -6.694733e+01 -1.700755e+01 1.393056e+01 -1.001048e+02 4.197000e+00 -1.481760e+02 -5.273207e-08 -5.072052e-08 NaN 7.311100e-02 -1.134750e+00 1.450000e-03 0 0 -1.770691e-07 
0 0 0 -5.141645e-01 -5.300820e-01 -1.006727e+01 -3.565820e+00 1.032650e+01 6.409769e-01 7.592440e+00 -1.122354e+01 7.963891e-01 0 0 NaN 3.328685e+00 1.078673e+01 -6.238451e-01 1.810985e+00 -9.068470e+00 8.028237e-01 0 0 NaN -1.060556e-06 -3.719919e-09 -3.790086e-05 0 0 0 5.922668e+01 5.745911e+00 1.040007e+01 8.899171e+01 -1.250051e+01 8.812390e+01 -3.610997e-08 -4.612977e-08 1.023088e-07 0 0 0 -6.132010e+01 -1.137217e+01 1.339651e+01 -9.274752e+01 7.821240e+00 -1.435374e+02 -5.612790e-08 -2.133933e-07 -1.032029e-07 -1.218433e-01 -1.001325e+00 -2.122750e-03 0 0 NaN 
